Coordinates
version=1
nRows=34
nColumns=38
inDegrees=no

Units are S.I. units (second, meters, Newtons, ...)
If the header above contains a line with 'inDegrees', this indicates whether rotational values are in degrees (yes) or radians (no).

endheader
time	pelvis_tilt	pelvis_list	pelvis_rotation	pelvis_tx	pelvis_ty	pelvis_tz	hip_flexion_r	hip_adduction_r	hip_rotation_r	knee_angle_r	ankle_angle_r	subtalar_angle_r	mtp_angle_r	hip_flexion_l	hip_adduction_l	hip_rotation_l	knee_angle_l	ankle_angle_l	subtalar_angle_l	mtp_angle_l	lumbar_extension	lumbar_bending	lumbar_rotation	arm_flex_r	arm_add_r	arm_rot_r	elbow_flex_r	pro_sup_r	wrist_flex_r	wrist_dev_r	arm_flex_l	arm_add_l	arm_rot_l	elbow_flex_l	pro_sup_l	wrist_flex_l	wrist_dev_l
0	2.82901	1.42068	-1.22675	0.683674	-0.30423	0.945409	0.218566	0.0287749	-0.289668	0.0246167	0.00306957	0	0	-0.394913	0.0103171	-0.240832	0.0771372	0.174305	0	0	-0.29418	0.0610424	0.0740623	0.128934	-0.317456	0.854174	0.353175	0.783548	0	0	0.1911	-0.159951	0.156291	0.236789	1.5708	0	0
0.01	2.83836	1.42189	-1.23259	0.683965	-0.295102	0.944451	0.224733	0.0274599	-0.309789	0.0525975	0.0140783	0	0	-0.398722	0.00817674	-0.240927	0.0876676	0.17944	0	0	-0.293007	0.062276	0.0689148	0.129165	-0.318943	0.861531	0.354685	0.776806	0	0	0.187896	-0.160198	0.154954	0.238952	1.5708	0	0
0.02	2.85061	1.4225	-1.23975	0.684069	-0.285446	0.943576	0.229714	0.0234984	-0.333551	0.0851724	0.0176112	0	0	-0.402467	0.00515391	-0.242037	0.100694	0.183841	0	0	-0.291746	0.0636093	0.0626703	0.127634	-0.320565	0.867938	0.356723	0.770507	0	0	0.183624	-0.160434	0.153866	0.241684	1.5708	0	0
0.03	2.86439	1.42249	-1.24736	0.684082	-0.275438	0.942814	0.231505	0.0190488	-0.350858	0.116055	0.0252137	0	0	-0.406367	0.00135301	-0.242207	0.115251	0.187068	0	0	-0.290507	0.065169	0.055303	0.125124	-0.321968	0.873445	0.358659	0.765012	0	0	0.178185	-0.160876	0.153396	0.245158	1.5708	0	0
0.04	2.87675	1.42248	-1.25347	0.684147	-0.265124	0.942086	0.230118	0.015876	-0.360644	0.139647	0.0297074	0	0	-0.409686	-0.00319121	-0.242361	0.13106	0.189454	0	0	-0.288425	0.066964	0.047738	0.121595	-0.323187	0.876541	0.360839	0.761151	0	0	0.171568	-0.161566	0.152871	0.249337	1.5708	0	0
0.05	2.88154	1.4222	-1.25287	0.684462	-0.254632	0.941485	0.225667	0.016027	-0.362731	0.152415	0.0271076	0	0	-0.411992	-0.00950986	-0.244156	0.148943	0.19096	0	0	-0.285948	0.0696986	0.0410499	0.117804	-0.324467	0.878993	0.36357	0.758359	0	0	0.164407	-0.162389	0.15233	0.253665	1.5708	0	0
0.06	2.87801	1.42191	-1.24504	0.685051	-0.243981	0.940997	0.21822	0.0199164	-0.35546	0.153565	0.0202496	0	0	-0.412645	-0.0176925	-0.248034	0.169777	0.191709	0	0	-0.282911	0.0733087	0.0355211	0.113509	-0.325931	0.880801	0.366967	0.757105	0	0	0.157075	-0.163071	0.150455	0.257274	1.5708	0	0
0.07	2.82313	1.41897	-1.19083	0.686178	-0.234272	0.941372	0.19918	0.0379696	-0.344825	0.124364	-0.0172214	0	0	-0.408855	-0.0341627	-0.259473	0.197853	0.192683	0	0	-0.283572	0.0850561	0.0367246	0.112168	-0.32944	0.881545	0.37039	0.756883	0	0	0.153027	-0.1608	0.146188	0.25918	1.5708	0	0
0.08	2.85524	1.42322	-1.21713	0.686961	-0.222152	0.940049	0.199944	0.0326725	-0.326665	0.139043	-0.0327959	0	0	-0.405246	-0.0377471	-0.261036	0.223653	0.192318	0	0	-0.273213	0.0811175	0.0284551	0.102142	-0.328879	0.880714	0.374253	0.757597	0	0	0.142371	-0.163463	0.142616	0.261075	1.5708	0	0
0.09	2.84138	1.42535	-1.20252	0.68813	-0.211049	0.939532	0.197489	0.0348934	-0.326669	0.14532	-0.0545294	0	0	-0.397367	-0.0478666	-0.267991	0.254818	0.189208	0	0	-0.266292	0.0845071	0.0266892	0.0956532	-0.330712	0.880425	0.378632	0.75877	0	0	0.134298	-0.163456	0.139375	0.263568	1.5708	0	0
0.1	2.82232	1.42624	-1.18342	0.689448	-0.199872	0.939238	0.19601	0.0367113	-0.332463	0.158398	-0.063989	0	0	-0.388062	-0.0599286	-0.274939	0.290333	0.183052	0	0	-0.260161	0.0888319	0.0258853	0.0892723	-0.332653	0.880381	0.383174	0.760264	0	0	0.126368	-0.163079	0.13661	0.265795	1.5708	0	0
0.11	2.80054	1.42517	-1.16209	0.690832	-0.188715	0.939318	0.194632	0.0381036	-0.341746	0.177578	-0.0639777	0	0	-0.378532	-0.0736109	-0.28046	0.3286	0.172826	0	0	-0.255891	0.09413	0.0259938	0.0832589	-0.334468	0.880445	0.387225	0.761464	0	0	0.119057	-0.16221	0.133919	0.267257	1.5708	0	0
0.12	2.77461	1.42111	-1.13781	0.692297	-0.177631	0.939919	0.190921	0.0410948	-0.350082	0.198463	-0.0606226	0	0	-0.369317	-0.0898623	-0.287366	0.370363	0.157475	0	0	-0.254763	0.10121	0.0278282	0.0783042	-0.336519	0.881617	0.39061	0.762284	0	0	0.112979	-0.160403	0.129511	0.266621	1.5708	0	0
0.13	2.74328	1.41539	-1.10948	0.693966	-0.166702	0.940893	0.185427	0.0467266	-0.355075	0.217875	-0.0561816	0	0	-0.357583	-0.10896	-0.295967	0.417323	0.135565	0	0	-0.255514	0.109659	0.0312305	0.0747746	-0.338537	0.8844	0.393095	0.762506	0	0	0.108028	-0.157875	0.122661	0.265017	1.5708	0	0
0.14	2.70939	1.41015	-1.08003	0.695926	-0.155965	0.941984	0.179917	0.0537358	-0.35818	0.235337	-0.0493298	0	0	-0.340878	-0.129625	-0.304032	0.469679	0.105682	0	0	-0.256041	0.117989	0.0358369	0.0724473	-0.340222	0.889015	0.395012	0.761754	0	0	0.103519	-0.155227	0.112433	0.263341	1.5708	0	0
0.15	2.67417	1.4069	-1.0503	0.69814	-0.14533	0.942941	0.175135	0.0611214	-0.360901	0.249573	-0.041863	0	0	-0.318302	-0.150592	-0.309527	0.526041	0.0671598	0	0	-0.254145	0.125134	0.0413213	0.0701815	-0.34133	0.894127	0.396559	0.76035	0	0	0.0982149	-0.153358	0.103284	0.263309	1.5708	0	0
0.16	2.63486	1.40629	-1.01661	0.7005	-0.13473	0.94358	0.171281	0.0690668	-0.362706	0.259195	-0.0348983	0	0	-0.289042	-0.171711	-0.310948	0.585962	0.0190826	0	0	-0.248817	0.131199	0.0465004	0.0675231	-0.342523	0.900911	0.399279	0.756652	0	0	0.0917586	-0.152518	0.0937802	0.26561	1.5708	0	0
0.17	2.59846	1.40711	-0.985347	0.702855	-0.124175	0.944	0.166072	0.0772875	-0.361262	0.263515	-0.0294377	0	0	-0.256064	-0.191006	-0.305917	0.646514	-0.0357928	0	0	-0.241916	0.135843	0.0510639	0.0647753	-0.344245	0.910592	0.403108	0.748454	0	0	0.0849731	-0.152903	0.087857	0.269244	1.5708	0	0
0.18	2.56536	1.40841	-0.956968	0.705157	-0.113712	0.944275	0.159984	0.0854099	-0.357033	0.265561	-0.023179	0	0	-0.220997	-0.208589	-0.296468	0.706713	-0.0948451	0	0	-0.234522	0.13953	0.0552451	0.0615722	-0.346088	0.9183	0.407409	0.740181	0	0	0.0784867	-0.154188	0.0849995	0.272724	1.5708	0	0
0.19	2.53972	1.40908	-0.936139	0.707434	-0.103384	0.944646	0.151425	0.093501	-0.350089	0.265023	-0.0168554	0	0	-0.186177	-0.224341	-0.284941	0.764874	-0.157661	0	0	-0.228519	0.142218	0.0598728	0.0583426	-0.34783	0.924407	0.411463	0.732876	0	0	0.0727886	-0.155864	0.0826846	0.276487	1.5708	0	0
0.2	2.52787	1.40834	-0.928065	0.709519	-0.0933196	0.9453	0.139574	0.100481	-0.342209	0.262783	-0.0109105	0	0	-0.152897	-0.237166	-0.269595	0.81951	-0.225602	0	0	-0.225779	0.143833	0.0637065	0.0559517	-0.34913	0.929149	0.414581	0.727325	0	0	0.0685288	-0.157894	0.0818158	0.280325	1.5708	0	0
0.21	2.52883	1.40566	-0.931907	0.711375	-0.0835565	0.946309	0.124625	0.106578	-0.333574	0.259999	-0.00574829	0	0	-0.121353	-0.247547	-0.251169	0.871712	-0.297785	0	0	-0.226837	0.145017	0.0671864	0.0542464	-0.350504	0.931916	0.417914	0.722361	0	0	0.0661367	-0.159834	0.0824731	0.282947	1.5708	0	0
0.22	2.54003	1.40204	-0.945889	0.713112	-0.0740213	0.947531	0.108341	0.111197	-0.324382	0.258388	-0.000347968	0	0	-0.0913957	-0.255494	-0.232681	0.921303	-0.364299	0	0	-0.23031	0.145129	0.0709311	0.0528365	-0.351518	0.931735	0.420988	0.720431	0	0	0.0651831	-0.16148	0.0831457	0.284178	1.5708	0	0
0.23	2.55232	1.39859	-0.960392	0.714667	-0.0647052	0.948765	0.0919473	0.115024	-0.315536	0.256328	0.0050259	0	0	-0.0620251	-0.260787	-0.213572	0.967414	-0.416537	0	0	-0.234249	0.144926	0.0744131	0.0518132	-0.352555	0.931135	0.424119	0.719121	0	0	0.0648243	-0.162775	0.0840111	0.285256	1.5708	0	0
0.24	2.56664	1.39557	-0.976909	0.716145	-0.0556121	0.950004	0.0754141	0.117953	-0.306417	0.253455	0.0117298	0	0	-0.0337929	-0.262924	-0.194797	1.00942	-0.446393	0	0	-0.238372	0.143998	0.0778529	0.0515115	-0.353056	0.930821	0.426187	0.717549	0	0	0.0648	-0.163901	0.0856234	0.286581	1.5708	0	0
0.25	2.54882	1.38433	-0.963188	0.717829	-0.0473517	0.952359	0.0451521	0.132901	-0.302754	0.227791	0.00312406	0	0	-0.0106612	-0.275262	-0.179425	1.04707	-0.452204	0	0	-0.249375	0.152844	0.0851704	0.0546128	-0.354538	0.931767	0.426688	0.714326	0	0	0.068183	-0.162306	0.0871339	0.285741	1.5708	0	0
0.26	2.607	1.39125	-1.0228	0.719254	-0.0379081	0.952559	0.0423839	0.120123	-0.28916	0.247309	0.0259345	0	0	0.0184558	-0.261446	-0.16271	1.08215	-0.433141	0	0	-0.246911	0.137974	0.0846256	0.0536907	-0.350321	0.933491	0.424693	0.712919	0	0	0.0660748	-0.166223	0.0904007	0.288127	1.5708	0	0
0.27	2.59285	1.38062	-1.01373	0.721019	-0.0299966	0.955106	0.0113964	0.133498	-0.287819	0.220539	0.0150589	0	0	0.040344	-0.273017	-0.151305	1.11661	-0.396633	0	0	-0.258746	0.144989	0.091924	0.0591067	-0.348626	0.934953	0.419373	0.713199	0	0	0.0711473	-0.164185	0.0935359	0.284443	1.5708	0	0
0.28	2.65911	1.38799	-1.08226	0.72252	-0.0209367	0.955379	0.0090008	0.118552	-0.277557	0.239529	0.0379187	0	0	0.0690153	-0.257117	-0.139245	1.1472	-0.355177	0	0	-0.256496	0.127953	0.0916386	0.0594996	-0.342448	0.936173	0.414294	0.713453	0	0	0.0709847	-0.16785	0.0971793	0.284432	1.5708	0	0
0.29	2.68716	1.38656	-1.11437	0.724152	-0.0127678	0.956809	-0.00803095	0.116881	-0.27285	0.23372	0.0428628	0	0	0.0925964	-0.253818	-0.130815	1.17115	-0.320364	0	0	-0.261592	0.122131	0.0956791	0.0629466	-0.337918	0.936007	0.407956	0.714773	0	0	0.0753482	-0.168128	0.0998013	0.280464	1.5708	0	0
0.3	2.71488	1.38541	-1.14658	0.725781	-0.00477147	0.958202	-0.0250684	0.114903	-0.267698	0.226436	0.0455592	0	0	0.114764	-0.249932	-0.124516	1.18808	-0.294203	0	0	-0.266596	0.116041	0.100247	0.0664509	-0.333369	0.934772	0.401691	0.716453	0	0	0.0809392	-0.167624	0.0992585	0.274259	1.5708	0	0
0.31	2.74368	1.38441	-1.18079	0.727431	0.00312511	0.959587	-0.0422519	0.112423	-0.261531	0.217981	0.0470748	0	0	0.135002	-0.244918	-0.120128	1.19812	-0.275961	0	0	-0.271606	0.109433	0.105838	0.0699601	-0.328931	0.932992	0.395272	0.718968	0	0	0.0866425	-0.166888	0.0974642	0.267663	1.5708	0	0
0.32	2.77239	1.38426	-1.21574	0.729073	0.0109944	0.960775	-0.0579539	0.109024	-0.255135	0.21048	0.0489722	0	0	0.15395	-0.23925	-0.11829	1.202	-0.260504	0	0	-0.275604	0.102303	0.11222	0.0729668	-0.324756	0.930154	0.38916	0.722051	0	0	0.091239	-0.166304	0.0954522	0.26339	1.5708	0	0
0.33	2.8012	1.38464	-1.2514	0.730703	0.0187881	0.961785	-0.0722933	0.104827	-0.249062	0.204169	0.0522004	0	0	0.171953	-0.23375	-0.118849	1.20158	-0.244158	0	0	-0.279054	0.0947955	0.119069	0.0758959	-0.320872	0.925789	0.383488	0.725268	0	0	0.0944957	-0.166342	0.0941528	0.262833	1.5708	0	0
